<?xml version="1.0" encoding="utf-8"?>
<!-- Generator: Adobe Illustrator 20.1.0, SVG Export Plug-In . SVG Version: 6.00 Build 0)  -->
<svg version="1.1" xmlns="http://www.w3.org/2000/svg" xmlns:xlink="http://www.w3.org/1999/xlink" x="0px" y="0px"
	 viewBox="0 0 635.3 502" style="enable-background:new 0 0 635.3 502;" xml:space="preserve">
<style type="text/css">
	.st0{clip-path:url(#SVGID_2_);fill:#CBCDCC;}
	
		.st1{clip-path:url(#SVGID_2_);fill:none;stroke:#FFFFFF;stroke-width:1.07;stroke-linecap:round;stroke-linejoin:round;stroke-miterlimit:10;}
	.st2{fill:none;}
	.st3{font-family:'Input-Bold';}
	.st4{font-size:14px;}
	.st5{font-family:'Input-Regular';}
	.st6{font-size:11px;}
	.st7{fill:#CBCDCC;}
	.st8{fill:none;stroke:#8E9090;stroke-width:1.07;stroke-linejoin:round;stroke-miterlimit:10;}
	.st9{fill:#C6DBEF;}
	.st10{fill:#9ECAE1;}
	.st11{fill:#6BAED6;}
	.st12{fill:#EFF3FF;}
	.st13{fill:#4292C6;}
	.st14{fill:#2171B5;}
	.st15{font-size:8px;}
	.st16{fill:#084594;}
	.st17{font-size:10px;}
	.st18{fill:#353535;}
</style>
<g id="Layer_2">
	<g>
		<defs>
			<rect id="SVGID_1_" width="635.3" height="502"/>
		</defs>
		<clipPath id="SVGID_2_">
			<use xlink:href="#SVGID_1_"  style="overflow:visible;"/>
		</clipPath>
		<rect class="st0" width="635.3" height="502"/>
		<rect class="st1" width="635.3" height="502"/>
	</g>
	<rect x="4" y="3.3" class="st2" width="623.3" height="74.7"/>
	<text transform="matrix(1 0 0 1 4 13.5112)"><tspan x="0" y="0" class="st3 st4">How active are Asian Americans in political campaigns?</tspan><tspan x="0" y="30" class="st5 st6">Very few Asian Americans were deeply involved in political campaigns though Southeast Asian </tspan><tspan x="0" y="43.2" class="st5 st6">Americans were the most consistently active.</tspan></text>
</g>
<g id="Layer_1">
	<rect x="55.2" y="101.7" class="st7" width="122.3" height="57.4"/>
	<line class="st8" x1="55.2" y1="156.5" x2="177.6" y2="156.5"/>
	<line class="st8" x1="55.2" y1="139.1" x2="177.6" y2="139.1"/>
	<line class="st8" x1="55.2" y1="121.7" x2="177.6" y2="121.7"/>
	<line class="st8" x1="55.2" y1="104.3" x2="177.6" y2="104.3"/>
	<line class="st8" x1="57.6" y1="159.1" x2="57.6" y2="101.7"/>
	<line class="st8" x1="87" y1="159.1" x2="87" y2="101.7"/>
	<line class="st8" x1="116.4" y1="159.1" x2="116.4" y2="101.7"/>
	<line class="st8" x1="145.8" y1="159.1" x2="145.8" y2="101.7"/>
	<line class="st8" x1="175.3" y1="159.1" x2="175.3" y2="101.7"/>
	<rect x="119.7" y="149.6" class="st9" width="5.3" height="7"/>
	<rect x="125.5" y="153" class="st9" width="5.3" height="3.5"/>
	<rect x="137.3" y="153" class="st9" width="5.3" height="3.5"/>
	<rect x="143.2" y="153" class="st10" width="5.3" height="3.5"/>
	<rect x="55.2" y="101.7" class="st2" width="122.3" height="57.4"/>
	<rect x="55.2" y="181.4" class="st7" width="122.3" height="57.4"/>
	<line class="st8" x1="55.2" y1="236.2" x2="177.6" y2="236.2"/>
	<line class="st8" x1="55.2" y1="218.8" x2="177.6" y2="218.8"/>
	<line class="st8" x1="55.2" y1="201.4" x2="177.6" y2="201.4"/>
	<line class="st8" x1="55.2" y1="184" x2="177.6" y2="184"/>
	<line class="st8" x1="57.6" y1="238.8" x2="57.6" y2="181.4"/>
	<line class="st8" x1="87" y1="238.8" x2="87" y2="181.4"/>
	<line class="st8" x1="116.4" y1="238.8" x2="116.4" y2="181.4"/>
	<line class="st8" x1="145.8" y1="238.8" x2="145.8" y2="181.4"/>
	<line class="st8" x1="175.3" y1="238.8" x2="175.3" y2="181.4"/>
	<g>
		<rect x="60.8" y="211.8" class="st11" width="5.3" height="10.4"/>
		<rect x="60.8" y="222.3" class="st9" width="5.3" height="3.5"/>
		<rect x="60.8" y="225.8" class="st12" width="5.3" height="10.4"/>
	</g>
	<g>
		<rect x="66.7" y="229.2" class="st11" width="5.3" height="3.5"/>
		<rect x="66.7" y="232.7" class="st9" width="5.3" height="3.5"/>
	</g>
	<g>
		<rect x="72.6" y="215.3" class="st11" width="5.3" height="3.5"/>
		<rect x="72.6" y="218.8" class="st10" width="5.3" height="3.5"/>
		<rect x="72.6" y="222.3" class="st9" width="5.3" height="10.4"/>
		<rect x="72.6" y="232.7" class="st12" width="5.3" height="3.5"/>
	</g>
	<rect x="84.3" y="232.7" class="st10" width="5.3" height="3.5"/>
	<rect x="90.2" y="232.7" class="st9" width="5.3" height="3.5"/>
	<rect x="96.1" y="229.2" class="st9" width="5.3" height="7"/>
	<g>
		<rect x="102" y="225.8" class="st11" width="5.3" height="3.5"/>
		<rect x="102" y="229.2" class="st10" width="5.3" height="3.5"/>
		<rect x="102" y="232.7" class="st9" width="5.3" height="3.5"/>
	</g>
	<rect x="107.9" y="232.7" class="st9" width="5.3" height="3.5"/>
	<g>
		<rect x="113.8" y="218.8" class="st11" width="5.3" height="3.5"/>
		<rect x="113.8" y="222.3" class="st9" width="5.3" height="13.9"/>
	</g>
	<g>
		<rect x="119.7" y="215.3" class="st11" width="5.3" height="3.5"/>
		<rect x="119.7" y="218.8" class="st10" width="5.3" height="3.5"/>
		<rect x="119.7" y="222.3" class="st9" width="5.3" height="10.4"/>
		<rect x="119.7" y="232.7" class="st12" width="5.3" height="3.5"/>
	</g>
	<g>
		<rect x="125.5" y="229.2" class="st11" width="5.3" height="3.5"/>
		<rect x="125.5" y="232.7" class="st9" width="5.3" height="3.5"/>
	</g>
	<g>
		<rect x="131.4" y="225.8" class="st11" width="5.3" height="3.5"/>
		<rect x="131.4" y="229.2" class="st9" width="5.3" height="7"/>
	</g>
	<rect x="137.3" y="232.7" class="st9" width="5.3" height="3.5"/>
	<g>
		<rect x="143.2" y="225.8" class="st10" width="5.3" height="3.5"/>
		<rect x="143.2" y="229.2" class="st9" width="5.3" height="7"/>
	</g>
	<g>
		<rect x="155" y="215.3" class="st13" width="5.3" height="3.5"/>
		<rect x="155" y="218.8" class="st11" width="5.3" height="3.5"/>
		<rect x="155" y="222.3" class="st10" width="5.3" height="10.4"/>
		<rect x="155" y="232.7" class="st9" width="5.3" height="3.5"/>
	</g>
	<g>
		<rect x="166.7" y="218.8" class="st11" width="5.3" height="3.5"/>
		<rect x="166.7" y="222.3" class="st9" width="5.3" height="13.9"/>
	</g>
	<rect x="55.2" y="181.4" class="st2" width="122.3" height="57.4"/>
	<rect x="55.2" y="261.1" class="st7" width="122.3" height="57.4"/>
	<line class="st8" x1="55.2" y1="315.9" x2="177.6" y2="315.9"/>
	<line class="st8" x1="55.2" y1="298.5" x2="177.6" y2="298.5"/>
	<line class="st8" x1="55.2" y1="281.1" x2="177.6" y2="281.1"/>
	<line class="st8" x1="55.2" y1="263.7" x2="177.6" y2="263.7"/>
	<line class="st8" x1="57.6" y1="318.5" x2="57.6" y2="261.1"/>
	<line class="st8" x1="87" y1="318.5" x2="87" y2="261.1"/>
	<line class="st8" x1="116.4" y1="318.5" x2="116.4" y2="261.1"/>
	<line class="st8" x1="145.8" y1="318.5" x2="145.8" y2="261.1"/>
	<line class="st8" x1="175.3" y1="318.5" x2="175.3" y2="261.1"/>
	<g>
		<rect x="60.8" y="308.9" class="st11" width="5.3" height="3.5"/>
		<rect x="60.8" y="312.4" class="st9" width="5.3" height="3.5"/>
	</g>
	<g>
		<rect x="66.7" y="308.9" class="st11" width="5.3" height="3.5"/>
		<rect x="66.7" y="312.4" class="st9" width="5.3" height="3.5"/>
	</g>
	<g>
		<rect x="72.6" y="305.4" class="st11" width="5.3" height="3.5"/>
		<rect x="72.6" y="308.9" class="st10" width="5.3" height="3.5"/>
		<rect x="72.6" y="312.4" class="st9" width="5.3" height="3.5"/>
	</g>
	<rect x="84.3" y="312.4" class="st9" width="5.3" height="3.5"/>
	<rect x="90.2" y="308.9" class="st9" width="5.3" height="7"/>
	<g>
		<rect x="96.1" y="305.4" class="st10" width="5.3" height="3.5"/>
		<rect x="96.1" y="308.9" class="st9" width="5.3" height="7"/>
	</g>
	<g>
		<rect x="102" y="305.4" class="st14" width="5.3" height="3.5"/>
		<rect x="102" y="308.9" class="st9" width="5.3" height="7"/>
	</g>
	<rect x="107.9" y="312.4" class="st12" width="5.3" height="3.5"/>
	<rect x="113.8" y="308.9" class="st9" width="5.3" height="7"/>
	<g>
		<rect x="119.7" y="302" class="st10" width="5.3" height="3.5"/>
		<rect x="119.7" y="305.4" class="st9" width="5.3" height="10.4"/>
	</g>
	<g>
		<rect x="125.5" y="308.9" class="st10" width="5.3" height="3.5"/>
		<rect x="125.5" y="312.4" class="st9" width="5.3" height="3.5"/>
	</g>
	<rect x="131.4" y="308.9" class="st10" width="5.3" height="7"/>
	<g>
		<rect x="143.2" y="308.9" class="st10" width="5.3" height="3.5"/>
		<rect x="143.2" y="312.4" class="st12" width="5.3" height="3.5"/>
	</g>
	<g>
		<rect x="155" y="308.9" class="st9" width="5.3" height="3.5"/>
		<rect x="155" y="312.4" class="st12" width="5.3" height="3.5"/>
	</g>
	<rect x="166.7" y="312.4" class="st10" width="5.3" height="3.5"/>
	<rect x="55.2" y="261.1" class="st2" width="122.3" height="57.4"/>
	<rect x="493.5" y="101.4" class="st7" width="122.3" height="57.4"/>
	<line class="st8" x1="493.5" y1="156.2" x2="615.8" y2="156.2"/>
	<line class="st8" x1="493.5" y1="138.8" x2="615.8" y2="138.8"/>
	<line class="st8" x1="493.5" y1="121.4" x2="615.8" y2="121.4"/>
	<line class="st8" x1="493.5" y1="104" x2="615.8" y2="104"/>
	<line class="st8" x1="495.8" y1="158.8" x2="495.8" y2="101.4"/>
	<line class="st8" x1="525.2" y1="158.8" x2="525.2" y2="101.4"/>
	<line class="st8" x1="554.7" y1="158.8" x2="554.7" y2="101.4"/>
	<line class="st8" x1="584.1" y1="158.8" x2="584.1" y2="101.4"/>
	<line class="st8" x1="613.5" y1="158.8" x2="613.5" y2="101.4"/>
	<g>
		<rect x="581.4" y="145.8" class="st9" width="5.3" height="7"/>
		<rect x="581.4" y="152.7" class="st12" width="5.3" height="3.5"/>
	</g>
	<rect x="593.2" y="152.7" class="st10" width="5.3" height="3.5"/>
	<rect x="605" y="149.3" class="st9" width="5.3" height="7"/>
	<rect x="493.5" y="101.4" class="st2" width="122.3" height="57.4"/>
	<rect x="493.5" y="84.6" class="st2" width="122.3" height="16.8"/>
	<text transform="matrix(1 0 0 1 501.6762 95.9298)" class="st5 st15">South Pacific Islander</text>
	<rect x="493.5" y="84.6" class="st2" width="122.3" height="16.8"/>
	<rect x="493.5" y="84.6" class="st2" width="122.3" height="16.8"/>
	<rect x="493.5" y="84.6" class="st2" width="122.3" height="16.8"/>
	<rect x="55.2" y="244.3" class="st2" width="122.3" height="16.8"/>
	<text transform="matrix(1 0 0 1 97.1499 255.5898)" class="st5 st15">Lebanese</text>
	<rect x="55.2" y="244.3" class="st2" width="122.3" height="16.8"/>
	<rect x="55.2" y="244.3" class="st2" width="122.3" height="16.8"/>
	<rect x="55.2" y="244.3" class="st2" width="122.3" height="16.8"/>
	<rect x="55.2" y="164.6" class="st2" width="122.3" height="16.8"/>
	<text transform="matrix(1 0 0 1 97.1499 175.9199)" class="st5 st15">Japanese</text>
	<rect x="55.2" y="164.6" class="st2" width="122.3" height="16.8"/>
	<rect x="55.2" y="164.6" class="st2" width="122.3" height="16.8"/>
	<rect x="55.2" y="164.6" class="st2" width="122.3" height="16.8"/>
	<rect x="55.2" y="84.9" class="st2" width="122.3" height="16.8"/>
	<text transform="matrix(1 0 0 1 94.75 96.2402)" class="st5 st15">Pakistani</text>
	<rect x="55.2" y="84.9" class="st2" width="122.3" height="16.8"/>
	<rect x="55.2" y="84.9" class="st2" width="122.3" height="16.8"/>
	<rect x="55.2" y="84.9" class="st2" width="122.3" height="16.8"/>
	<text transform="matrix(1 0 0 1 47.9399 408.9102)" class="st5 st15">1970</text>
	<text transform="matrix(1 0 0 1 77.3599 408.9102)" class="st5 st15">1980</text>
	<text transform="matrix(1 0 0 1 106.79 408.9102)" class="st5 st15">1990</text>
	<text transform="matrix(1 0 0 1 136.21 408.9102)" class="st5 st15">2000</text>
	<text transform="matrix(1 0 0 1 165.6299 408.9102)" class="st5 st15">2010</text>
	<line class="st8" x1="201" y1="156.5" x2="323.3" y2="156.5"/>
	<line class="st8" x1="201" y1="139.1" x2="323.3" y2="139.1"/>
	<line class="st8" x1="201" y1="121.7" x2="323.3" y2="121.7"/>
	<line class="st8" x1="201" y1="104.3" x2="323.3" y2="104.3"/>
	<line class="st8" x1="203.3" y1="159.1" x2="203.3" y2="101.7"/>
	<line class="st8" x1="232.7" y1="159.1" x2="232.7" y2="101.7"/>
	<line class="st8" x1="262.1" y1="159.1" x2="262.1" y2="101.7"/>
	<line class="st8" x1="291.6" y1="159.1" x2="291.6" y2="101.7"/>
	<line class="st8" x1="321" y1="159.1" x2="321" y2="101.7"/>
	<g>
		<rect x="230.1" y="146.1" class="st11" width="5.3" height="7"/>
		<rect x="230.1" y="153" class="st10" width="5.3" height="3.5"/>
	</g>
	<rect x="236" y="153" class="st10" width="5.3" height="3.5"/>
	<rect x="241.8" y="153" class="st10" width="5.3" height="3.5"/>
	<g>
		<rect x="247.7" y="146.1" class="st10" width="5.3" height="3.5"/>
		<g>
			<rect x="247.7" y="149.6" class="st9" width="5.3" height="7"/>
		</g>
	</g>
	<g>
		<rect x="253.6" y="142.6" class="st11" width="5.3" height="3.5"/>
		<rect x="253.6" y="146.1" class="st9" width="5.3" height="3.5"/>
		<rect x="253.6" y="149.6" class="st12" width="5.3" height="7"/>
	</g>
	<g>
		<rect x="259.5" y="125.2" class="st13" width="5.3" height="3.5"/>
		<g>
			<rect x="259.5" y="128.7" class="st10" width="5.3" height="3.5"/>
			<rect x="259.5" y="132.2" class="st9" width="5.3" height="24.4"/>
		</g>
	</g>
	<g>
		<rect x="265.4" y="142.6" class="st10" width="5.3" height="10.4"/>
		<rect x="265.4" y="153" class="st9" width="5.3" height="3.5"/>
	</g>
	<g>
		<rect x="271.3" y="125.2" class="st10" width="5.3" height="10.4"/>
		<rect x="271.3" y="135.6" class="st9" width="5.3" height="20.9"/>
	</g>
	<g>
		<rect x="277.2" y="142.6" class="st10" width="5.3" height="3.5"/>
		<rect x="277.2" y="139.1" class="st11" width="5.3" height="3.5"/>
		<rect x="277.2" y="146.1" class="st9" width="5.3" height="10.4"/>
	</g>
	<rect x="283" y="142.6" class="st9" width="5.3" height="13.9"/>
	<g>
		<rect x="288.9" y="107.8" class="st11" width="5.3" height="3.5"/>
		<rect x="288.9" y="111.3" class="st10" width="5.3" height="7"/>
		<rect x="288.9" y="118.2" class="st9" width="5.3" height="31.3"/>
		<rect x="288.9" y="149.6" class="st12" width="5.3" height="7"/>
	</g>
	<g>
		<rect x="312.5" y="104.3" class="st11" width="5.3" height="7"/>
		<rect x="312.5" y="111.3" class="st10" width="5.3" height="13.9"/>
		<rect x="312.5" y="125.2" class="st9" width="5.3" height="20.9"/>
		<rect x="312.5" y="146.1" class="st12" width="5.3" height="10.4"/>
	</g>
	<rect x="201" y="101.7" class="st2" width="122.3" height="57.4"/>
	<rect x="201" y="181.4" class="st7" width="122.3" height="57.4"/>
	<line class="st8" x1="201" y1="236.2" x2="323.3" y2="236.2"/>
	<line class="st8" x1="201" y1="218.8" x2="323.3" y2="218.8"/>
	<line class="st8" x1="201" y1="201.4" x2="323.3" y2="201.4"/>
	<line class="st8" x1="201" y1="184" x2="323.3" y2="184"/>
	<line class="st8" x1="203.3" y1="238.8" x2="203.3" y2="181.4"/>
	<line class="st8" x1="232.7" y1="238.8" x2="232.7" y2="181.4"/>
	<line class="st8" x1="262.1" y1="238.8" x2="262.1" y2="181.4"/>
	<line class="st8" x1="291.6" y1="238.8" x2="291.6" y2="181.4"/>
	<line class="st8" x1="321" y1="238.8" x2="321" y2="181.4"/>
	<rect x="218.3" y="232.7" class="st9" width="5.3" height="3.5"/>
	<rect x="236" y="232.7" class="st11" width="5.3" height="3.5"/>
	<rect x="241.8" y="232.7" class="st12" width="5.3" height="3.5"/>
	<g>
		<rect x="247.7" y="225.8" class="st10" width="5.3" height="7"/>
		<rect x="247.7" y="232.7" class="st9" width="5.3" height="3.5"/>
	</g>
	<g>
		<rect x="253.6" y="225.8" class="st9" width="5.3" height="7"/>
		<rect x="253.6" y="232.7" class="st12" width="5.3" height="3.5"/>
	</g>
	<rect x="259.5" y="222.3" class="st9" width="5.3" height="13.9"/>
	<g>
		<rect x="265.4" y="218.8" class="st10" width="5.3" height="3.5"/>
		<rect x="265.4" y="222.3" class="st9" width="5.3" height="13.9"/>
	</g>
	<g>
		<rect x="271.3" y="229.2" class="st10" width="5.3" height="3.5"/>
		<rect x="271.3" y="232.7" class="st9" width="5.3" height="3.5"/>
	</g>
	<g>
		<rect x="277.2" y="222.3" class="st11" width="5.3" height="3.5"/>
		<rect x="277.2" y="225.8" class="st10" width="5.3" height="3.5"/>
		<rect x="277.2" y="229.2" class="st9" width="5.3" height="7"/>
	</g>
	<g>
		<rect x="288.9" y="222.3" class="st10" width="5.3" height="3.5"/>
		<rect x="288.9" y="225.8" class="st9" width="5.3" height="7"/>
		<rect x="288.9" y="232.7" class="st12" width="5.3" height="3.5"/>
	</g>
	<g>
		<rect x="300.7" y="211.8" class="st10" width="5.3" height="7"/>
		<rect x="300.7" y="218.8" class="st9" width="5.3" height="7"/>
		<rect x="300.7" y="225.8" class="st12" width="5.3" height="10.4"/>
	</g>
	<rect x="312.5" y="232.7" class="st10" width="5.3" height="3.5"/>
	<rect x="201" y="181.4" class="st2" width="122.3" height="57.4"/>
	<rect x="201" y="261.1" class="st7" width="122.3" height="57.4"/>
	<line class="st8" x1="201" y1="315.9" x2="323.3" y2="315.9"/>
	<line class="st8" x1="201" y1="298.5" x2="323.3" y2="298.5"/>
	<line class="st8" x1="201" y1="281.1" x2="323.3" y2="281.1"/>
	<line class="st8" x1="201" y1="263.7" x2="323.3" y2="263.7"/>
	<line class="st8" x1="203.3" y1="318.5" x2="203.3" y2="261.1"/>
	<line class="st8" x1="232.7" y1="318.5" x2="232.7" y2="261.1"/>
	<line class="st8" x1="262.1" y1="318.5" x2="262.1" y2="261.1"/>
	<line class="st8" x1="291.6" y1="318.5" x2="291.6" y2="261.1"/>
	<line class="st8" x1="321" y1="318.5" x2="321" y2="261.1"/>
	<g>
		<rect x="230.1" y="308.9" class="st10" width="5.3" height="3.5"/>
		<rect x="230.1" y="312.4" class="st12" width="5.3" height="3.5"/>
	</g>
	<rect x="247.7" y="312.4" class="st10" width="5.3" height="3.5"/>
	<g>
		<rect x="288.9" y="305.4" class="st9" width="5.3" height="7"/>
		<rect x="288.9" y="312.4" class="st12" width="5.3" height="3.5"/>
	</g>
	<rect x="300.7" y="312.4" class="st14" width="5.3" height="3.5"/>
	<rect x="201" y="261.1" class="st2" width="122.3" height="57.4"/>
	<rect x="201" y="340.7" class="st7" width="122.3" height="57.4"/>
	<line class="st8" x1="201" y1="395.5" x2="323.3" y2="395.5"/>
	<line class="st8" x1="201" y1="378.1" x2="323.3" y2="378.1"/>
	<line class="st8" x1="201" y1="360.8" x2="323.3" y2="360.8"/>
	<line class="st8" x1="201" y1="343.4" x2="323.3" y2="343.4"/>
	<line class="st8" x1="203.3" y1="398.2" x2="203.3" y2="340.7"/>
	<line class="st8" x1="232.7" y1="398.2" x2="232.7" y2="340.7"/>
	<line class="st8" x1="262.1" y1="398.2" x2="262.1" y2="340.7"/>
	<line class="st8" x1="291.6" y1="398.2" x2="291.6" y2="340.7"/>
	<line class="st8" x1="321" y1="398.2" x2="321" y2="340.7"/>
	<g>
		<rect x="288.9" y="388.6" class="st10" width="5.3" height="3.5"/>
		<rect x="288.9" y="392.1" class="st12" width="5.3" height="3.5"/>
	</g>
	<rect x="300.7" y="392.1" class="st12" width="5.3" height="3.5"/>
	<g>
		<rect x="312.5" y="385.1" class="st9" width="5.3" height="7"/>
		<rect x="312.5" y="392.1" class="st12" width="5.3" height="3.5"/>
	</g>
	<rect x="201" y="340.7" class="st2" width="122.3" height="57.4"/>
	<rect x="201" y="324" class="st2" width="122.3" height="16.8"/>
	<g>
		<text transform="matrix(1 0 0 1 219.6805 328.2598)"><tspan x="0" y="0" class="st5 st15">Asian American,</tspan><tspan x="0" y="9.6" class="st5 st15">−Japanese American</tspan></text>
	</g>
	<rect x="201" y="324" class="st2" width="122.3" height="16.8"/>
	<rect x="201" y="244.3" class="st2" width="122.3" height="16.8"/>
	<text transform="matrix(1 0 0 1 247.6908 255.5898)" class="st5 st15">Syrian</text>
	<rect x="201" y="244.3" class="st2" width="122.3" height="16.8"/>
	<rect x="201" y="244.3" class="st2" width="122.3" height="16.8"/>
	<rect x="201" y="244.3" class="st2" width="122.3" height="16.8"/>
	<rect x="201" y="164.6" class="st2" width="122.3" height="16.8"/>
	<text transform="matrix(1 0 0 1 247.6908 175.9199)" class="st5 st15">Korean</text>
	<rect x="201" y="164.6" class="st2" width="122.3" height="16.8"/>
	<rect x="201" y="164.6" class="st2" width="122.3" height="16.8"/>
	<rect x="201" y="164.6" class="st2" width="122.3" height="16.8"/>
	<rect x="201" y="84.9" class="st2" width="122.3" height="16.8"/>
	<text transform="matrix(1 0 0 1 247.6908 96.2402)" class="st5 st15">Indian</text>
	<rect x="201" y="84.9" class="st2" width="122.3" height="16.8"/>
	<rect x="201" y="84.9" class="st2" width="122.3" height="16.8"/>
	<rect x="201" y="84.9" class="st2" width="122.3" height="16.8"/>
	<text transform="matrix(1 0 0 1 193.6605 408.9102)" class="st5 st15">1970</text>
	<text transform="matrix(1 0 0 1 223.0809 408.9102)" class="st5 st15">1980</text>
	<text transform="matrix(1 0 0 1 252.5106 408.9102)" class="st5 st15">1990</text>
	<text transform="matrix(1 0 0 1 281.9305 408.9102)" class="st5 st15">2000</text>
	<text transform="matrix(1 0 0 1 311.3509 408.9102)" class="st5 st15">2010</text>
	<rect x="346.7" y="101.7" class="st7" width="122.3" height="57.4"/>
	<line class="st8" x1="346.7" y1="156.5" x2="469" y2="156.5"/>
	<line class="st8" x1="346.7" y1="139.1" x2="469" y2="139.1"/>
	<line class="st8" x1="346.7" y1="121.7" x2="469" y2="121.7"/>
	<line class="st8" x1="346.7" y1="104.3" x2="469" y2="104.3"/>
	<line class="st8" x1="349" y1="159.1" x2="349" y2="101.7"/>
	<line class="st8" x1="378.4" y1="159.1" x2="378.4" y2="101.7"/>
	<line class="st8" x1="407.9" y1="159.1" x2="407.9" y2="101.7"/>
	<line class="st8" x1="437.3" y1="159.1" x2="437.3" y2="101.7"/>
	<line class="st8" x1="466.7" y1="159.1" x2="466.7" y2="101.7"/>
	<rect x="352.2" y="153" class="st9" width="5.3" height="3.5"/>
	<rect x="375.8" y="149.6" class="st9" width="5.3" height="7"/>
	<rect x="381.7" y="149.6" class="st9" width="5.3" height="7"/>
	<rect x="387.6" y="139.1" class="st9" width="5.3" height="17.4"/>
	<g>
		<rect x="393.4" y="139.1" class="st11" width="5.3" height="3.5"/>
		<rect x="393.4" y="142.6" class="st9" width="5.3" height="13.9"/>
	</g>
	<g>
		<rect x="399.3" y="121.7" class="st14" width="5.3" height="3.5"/>
		<rect x="399.3" y="125.2" class="st13" width="5.3" height="3.5"/>
		<rect x="399.3" y="128.7" class="st10" width="5.3" height="7"/>
		<rect x="399.3" y="135.6" class="st9" width="5.3" height="20.9"/>
	</g>
	<g>
		<rect x="405.2" y="107.8" class="st10" width="5.3" height="7"/>
		<rect x="405.2" y="114.8" class="st9" width="5.3" height="41.8"/>
	</g>
	<g>
		<rect x="411.1" y="107.8" class="st10" width="5.3" height="10.4"/>
		<rect x="411.1" y="118.2" class="st9" width="5.3" height="31.3"/>
		<rect x="411.1" y="149.6" class="st12" width="5.3" height="7"/>
	</g>
	<g>
		<rect x="417" y="121.7" class="st10" width="5.3" height="3.5"/>
		<rect x="417" y="125.2" class="st9" width="5.3" height="31.3"/>
	</g>
	<g>
		<rect x="422.9" y="121.7" class="st10" width="5.3" height="3.5"/>
		<rect x="422.9" y="125.2" class="st9" width="5.3" height="27.8"/>
		<rect x="422.9" y="153" class="st12" width="5.3" height="3.5"/>
	</g>
	<g>
		<rect x="428.7" y="149.6" class="st10" width="5.3" height="3.5"/>
		<rect x="428.7" y="153" class="st9" width="5.3" height="3.5"/>
	</g>
	<g>
		<rect x="434.6" y="121.7" class="st11" width="5.3" height="7"/>
		<rect x="434.6" y="128.7" class="st10" width="5.3" height="3.5"/>
		<rect x="434.6" y="132.2" class="st9" width="5.3" height="20.9"/>
		<rect x="434.6" y="153" class="st12" width="5.3" height="3.5"/>
	</g>
	<g>
		<rect x="446.4" y="125.2" class="st10" width="5.3" height="7"/>
		<rect x="446.4" y="132.2" class="st9" width="5.3" height="10.4"/>
		<rect x="446.4" y="142.6" class="st12" width="5.3" height="13.9"/>
	</g>
	<g>
		<rect x="458.2" y="132.2" class="st10" width="5.3" height="7"/>
		<rect x="458.2" y="139.1" class="st9" width="5.3" height="17.4"/>
	</g>
	<rect x="346.7" y="101.7" class="st2" width="122.3" height="57.4"/>
	<rect x="346.7" y="261.1" class="st7" width="122.3" height="57.4"/>
	<line class="st8" x1="346.7" y1="315.9" x2="469" y2="315.9"/>
	<line class="st8" x1="346.7" y1="298.5" x2="469" y2="298.5"/>
	<line class="st8" x1="346.7" y1="281.1" x2="469" y2="281.1"/>
	<line class="st8" x1="346.7" y1="263.7" x2="469" y2="263.7"/>
	<line class="st8" x1="349" y1="318.5" x2="349" y2="261.1"/>
	<line class="st8" x1="378.4" y1="318.5" x2="378.4" y2="261.1"/>
	<line class="st8" x1="407.9" y1="318.5" x2="407.9" y2="261.1"/>
	<line class="st8" x1="437.3" y1="318.5" x2="437.3" y2="261.1"/>
	<line class="st8" x1="466.7" y1="318.5" x2="466.7" y2="261.1"/>
	<rect x="352.2" y="312.4" class="st12" width="5.3" height="3.5"/>
	<rect x="375.8" y="312.4" class="st13" width="5.3" height="3.5"/>
	<rect x="381.7" y="312.4" class="st9" width="5.3" height="3.5"/>
	<rect x="393.4" y="312.4" class="st9" width="5.3" height="3.5"/>
	<rect x="411.1" y="312.4" class="st11" width="5.3" height="3.5"/>
	<rect x="346.7" y="261.1" class="st2" width="122.3" height="57.4"/>
	<rect x="346.7" y="340.7" class="st7" width="122.3" height="57.4"/>
	<line class="st8" x1="346.7" y1="395.5" x2="469" y2="395.5"/>
	<line class="st8" x1="346.7" y1="378.1" x2="469" y2="378.1"/>
	<line class="st8" x1="346.7" y1="360.8" x2="469" y2="360.8"/>
	<line class="st8" x1="346.7" y1="343.4" x2="469" y2="343.4"/>
	<line class="st8" x1="349" y1="398.2" x2="349" y2="340.7"/>
	<line class="st8" x1="378.4" y1="398.2" x2="378.4" y2="340.7"/>
	<line class="st8" x1="407.9" y1="398.2" x2="407.9" y2="340.7"/>
	<line class="st8" x1="437.3" y1="398.2" x2="437.3" y2="340.7"/>
	<line class="st8" x1="466.7" y1="398.2" x2="466.7" y2="340.7"/>
	<rect x="352.2" y="392.1" class="st10" width="5.3" height="3.5"/>
	<g>
		<rect x="387.6" y="388.6" class="st10" width="5.3" height="3.5"/>
		<rect x="387.6" y="392.1" class="st9" width="5.3" height="3.5"/>
	</g>
	<rect x="393.4" y="392.1" class="st9" width="5.3" height="3.5"/>
	<rect x="399.3" y="392.1" class="st9" width="5.3" height="3.5"/>
	<g>
		<rect x="405.2" y="388.6" class="st11" width="5.3" height="3.5"/>
		<rect x="405.2" y="392.1" class="st10" width="5.3" height="3.5"/>
	</g>
	<g>
		<rect x="422.9" y="385.1" class="st9" width="5.3" height="3.5"/>
		<rect x="422.9" y="388.6" class="st12" width="5.3" height="7"/>
	</g>
	<rect x="428.7" y="392.1" class="st10" width="5.3" height="3.5"/>
	<rect x="446.4" y="392.1" class="st10" width="5.3" height="3.5"/>
	<rect x="346.7" y="340.7" class="st2" width="122.3" height="57.4"/>
	<rect x="346.7" y="324" class="st2" width="122.3" height="16.8"/>
	<text transform="matrix(1 0 0 1 364.5161 335.2598)" class="st5 st15">Other, Multiracial</text>
	<rect x="346.7" y="324" class="st2" width="122.3" height="16.8"/>
	<rect x="346.7" y="324" class="st2" width="122.3" height="16.8"/>
	<rect x="346.7" y="324" class="st2" width="122.3" height="16.8"/>
	<text transform="matrix(1 0 0 1 391.0063 255.5898)" class="st5 st15">Turkish</text>
	<g>
		<rect x="54.7" y="340.7" class="st7" width="122.3" height="57.4"/>
		<line class="st8" x1="54.7" y1="395.5" x2="177" y2="395.5"/>
		<line class="st8" x1="54.7" y1="378.1" x2="177" y2="378.1"/>
		<line class="st8" x1="54.7" y1="360.7" x2="177" y2="360.7"/>
		<line class="st8" x1="54.7" y1="343.4" x2="177" y2="343.4"/>
		<line class="st8" x1="57" y1="398.2" x2="57" y2="340.7"/>
		<line class="st8" x1="86.4" y1="398.2" x2="86.4" y2="340.7"/>
		<line class="st8" x1="115.8" y1="398.2" x2="115.8" y2="340.7"/>
		<line class="st8" x1="145.3" y1="398.2" x2="145.3" y2="340.7"/>
		<line class="st8" x1="174.7" y1="398.2" x2="174.7" y2="340.7"/>
		<g>
			<rect x="136.7" y="364.2" class="st10" width="5.3" height="7"/>
			<rect x="136.7" y="371.2" class="st9" width="5.3" height="24.4"/>
		</g>
		<g>
			<rect x="142.6" y="381.6" class="st11" width="5.3" height="3.5"/>
			<rect x="142.6" y="385.1" class="st9" width="5.3" height="10.4"/>
		</g>
		<g>
			<rect x="154.4" y="385.1" class="st9" width="5.3" height="7"/>
			<rect x="154.4" y="392.1" class="st12" width="5.3" height="3.5"/>
		</g>
		<g>
			<rect x="166.2" y="364.2" class="st10" width="5.3" height="10.4"/>
			<rect x="166.2" y="374.7" class="st9" width="5.3" height="20.9"/>
		</g>
		<rect x="54.7" y="340.7" class="st2" width="122.3" height="57.4"/>
		<rect x="54.7" y="324" class="st2" width="122.3" height="16.8"/>
		<text transform="matrix(1 0 0 1 103.7947 335.2599)" class="st5 st15">Asian</text>
		<rect x="54.7" y="324" class="st2" width="122.3" height="16.8"/>
		<rect x="54.7" y="324" class="st2" width="122.3" height="16.8"/>
		<rect x="54.7" y="324" class="st2" width="122.3" height="16.8"/>
	</g>
	<rect x="346.7" y="84.9" class="st2" width="122.3" height="16.8"/>
	<text transform="matrix(1 0 0 1 374.1459 96.2402)" class="st5 st15">Southeast Asia</text>
	<rect x="346.7" y="84.9" class="st2" width="122.3" height="16.8"/>
	<rect x="346.7" y="84.9" class="st2" width="122.3" height="16.8"/>
	<rect x="346.7" y="84.9" class="st2" width="122.3" height="16.8"/>
	<text transform="matrix(1 0 0 1 339.3764 408.9102)" class="st5 st15">1970</text>
	<text transform="matrix(1 0 0 1 368.8061 408.9102)" class="st5 st15">1980</text>
	<text transform="matrix(1 0 0 1 398.226 408.9102)" class="st5 st15">1990</text>
	<text transform="matrix(1 0 0 1 427.6459 408.9102)" class="st5 st15">2000</text>
	<text transform="matrix(1 0 0 1 457.0766 408.9102)" class="st5 st15">2010</text>
	<rect x="492.7" y="340.7" class="st7" width="122.3" height="57.4"/>
	<line class="st8" x1="492.7" y1="395.5" x2="615.1" y2="395.5"/>
	<line class="st8" x1="492.7" y1="378.1" x2="615.1" y2="378.1"/>
	<line class="st8" x1="492.7" y1="360.8" x2="615.1" y2="360.8"/>
	<line class="st8" x1="492.7" y1="343.4" x2="615.1" y2="343.4"/>
	<line class="st8" x1="495" y1="398.2" x2="495" y2="340.7"/>
	<line class="st8" x1="524.5" y1="398.2" x2="524.5" y2="340.7"/>
	<line class="st8" x1="553.9" y1="398.2" x2="553.9" y2="340.7"/>
	<line class="st8" x1="583.3" y1="398.2" x2="583.3" y2="340.7"/>
	<line class="st8" x1="612.7" y1="398.2" x2="612.7" y2="340.7"/>
	<rect x="498.3" y="392.1" class="st9" width="5.3" height="3.5"/>
	<rect x="521.8" y="392.1" class="st9" width="5.3" height="3.5"/>
	<rect x="527.7" y="392.1" class="st9" width="5.3" height="3.5"/>
	<g>
		<rect x="551.2" y="388.6" class="st10" width="5.3" height="3.5"/>
		<rect x="551.2" y="392.1" class="st9" width="5.3" height="3.5"/>
	</g>
	<rect x="557.1" y="392.1" class="st11" width="5.3" height="3.5"/>
	<rect x="580.7" y="388.6" class="st9" width="5.3" height="7"/>
	<g>
		<rect x="604.2" y="388.6" class="st11" width="5.3" height="3.5"/>
		<rect x="604.2" y="392.1" class="st10" width="5.3" height="3.5"/>
	</g>
	<rect x="492.7" y="340.7" class="st2" width="122.3" height="57.4"/>
	<rect x="492.7" y="324" class="st2" width="122.3" height="16.8"/>
	<text transform="matrix(1 0 0 1 534.6201 335.2598)" class="st5 st15">American</text>
	<rect x="492.7" y="324" class="st2" width="122.3" height="16.8"/>
	<rect x="492.7" y="324" class="st2" width="122.3" height="16.8"/>
	<rect x="492.7" y="324" class="st2" width="122.3" height="16.8"/>
	<rect x="492.7" y="261.1" class="st7" width="122.3" height="57.4"/>
	<line class="st8" x1="492.7" y1="315.9" x2="615.1" y2="315.9"/>
	<line class="st8" x1="492.7" y1="298.5" x2="615.1" y2="298.5"/>
	<line class="st8" x1="492.7" y1="281.1" x2="615.1" y2="281.1"/>
	<line class="st8" x1="492.7" y1="263.7" x2="615.1" y2="263.7"/>
	<line class="st8" x1="495" y1="318.5" x2="495" y2="261.1"/>
	<line class="st8" x1="524.5" y1="318.5" x2="524.5" y2="261.1"/>
	<line class="st8" x1="553.9" y1="318.5" x2="553.9" y2="261.1"/>
	<line class="st8" x1="583.3" y1="318.5" x2="583.3" y2="261.1"/>
	<line class="st8" x1="612.7" y1="318.5" x2="612.7" y2="261.1"/>
	<g>
		<rect x="557.1" y="295" class="st11" width="5.3" height="3.5"/>
		<rect x="557.1" y="298.5" class="st10" width="5.3" height="7"/>
		<rect x="557.1" y="305.4" class="st9" width="5.3" height="10.4"/>
	</g>
	<g>
		<rect x="563" y="302" class="st10" width="5.3" height="7"/>
		<rect x="563" y="308.9" class="st9" width="5.3" height="7"/>
	</g>
	<g>
		<rect x="568.9" y="305.4" class="st11" width="5.3" height="7"/>
		<rect x="568.9" y="312.4" class="st9" width="5.3" height="3.5"/>
	</g>
	<g>
		<rect x="580.7" y="305.4" class="st11" width="5.3" height="7"/>
		<rect x="580.7" y="312.4" class="st9" width="5.3" height="3.5"/>
	</g>
	<g>
		<rect x="592.4" y="308.9" class="st10" width="5.3" height="3.5"/>
		<rect x="592.4" y="312.4" class="st9" width="5.3" height="3.5"/>
	</g>
	<rect x="604.2" y="312.4" class="st9" width="5.3" height="3.5"/>
	<rect x="492.7" y="261.1" class="st2" width="122.3" height="57.4"/>
	<rect x="492.7" y="244.3" class="st2" width="122.3" height="16.8"/>
	<text transform="matrix(1 0 0 1 534.6201 255.5898)" class="st5 st15">Armenian</text>
	<rect x="492.7" y="244.3" class="st2" width="122.3" height="16.8"/>
	<rect x="492.7" y="244.3" class="st2" width="122.3" height="16.8"/>
	<rect x="492.7" y="244.3" class="st2" width="122.3" height="16.8"/>
	<rect x="492.7" y="181.4" class="st7" width="122.3" height="57.4"/>
	<line class="st8" x1="492.7" y1="236.2" x2="615.1" y2="236.2"/>
	<line class="st8" x1="492.7" y1="218.8" x2="615.1" y2="218.8"/>
	<line class="st8" x1="492.7" y1="201.4" x2="615.1" y2="201.4"/>
	<line class="st8" x1="492.7" y1="184" x2="615.1" y2="184"/>
	<line class="st8" x1="495" y1="238.8" x2="495" y2="181.4"/>
	<line class="st8" x1="524.5" y1="238.8" x2="524.5" y2="181.4"/>
	<line class="st8" x1="553.9" y1="238.8" x2="553.9" y2="181.4"/>
	<line class="st8" x1="583.3" y1="238.8" x2="583.3" y2="181.4"/>
	<line class="st8" x1="612.7" y1="238.8" x2="612.7" y2="181.4"/>
	<g>
		<rect x="533.6" y="229.2" class="st16" width="5.3" height="3.5"/>
		<rect x="533.6" y="232.7" class="st9" width="5.3" height="3.5"/>
	</g>
	<rect x="557.1" y="232.7" class="st10" width="5.3" height="3.5"/>
	<rect x="563" y="232.7" class="st10" width="5.3" height="3.5"/>
	<g>
		<rect x="574.8" y="225.8" class="st10" width="5.3" height="3.5"/>
		<rect x="574.8" y="229.2" class="st9" width="5.3" height="7"/>
	</g>
	<g>
		<rect x="592.4" y="229.2" class="st10" width="5.3" height="3.5"/>
		<rect x="592.4" y="232.7" class="st9" width="5.3" height="3.5"/>
	</g>
	<rect x="604.2" y="232.7" class="st10" width="5.3" height="3.5"/>
	<rect x="492.7" y="181.4" class="st2" width="122.3" height="57.4"/>
	<rect x="492.7" y="164.6" class="st2" width="122.3" height="16.8"/>
	<text transform="matrix(1 0 0 1 517.7598 175.9199)" class="st5 st15">Iranian,Persian</text>
	<rect x="492.7" y="164.6" class="st2" width="122.3" height="16.8"/>
	<rect x="492.7" y="164.6" class="st2" width="122.3" height="16.8"/>
	<rect x="492.7" y="164.6" class="st2" width="122.3" height="16.8"/>
	<rect x="345.6" y="182.2" class="st7" width="122.3" height="57.4"/>
	<line class="st8" x1="345.6" y1="237" x2="468" y2="237"/>
	<line class="st8" x1="345.6" y1="219.6" x2="468" y2="219.6"/>
	<line class="st8" x1="345.6" y1="202.2" x2="468" y2="202.2"/>
	<line class="st8" x1="345.6" y1="184.8" x2="468" y2="184.8"/>
	<line class="st8" x1="347.9" y1="239.6" x2="347.9" y2="182.2"/>
	<line class="st8" x1="377.4" y1="239.6" x2="377.4" y2="182.2"/>
	<line class="st8" x1="406.8" y1="239.6" x2="406.8" y2="182.2"/>
	<line class="st8" x1="436.2" y1="239.6" x2="436.2" y2="182.2"/>
	<line class="st8" x1="465.6" y1="239.6" x2="465.6" y2="182.2"/>
	<g>
		<rect x="351.2" y="223.1" class="st14" width="5.3" height="3.5"/>
		<rect x="351.2" y="226.6" class="st9" width="5.3" height="10.4"/>
	</g>
	<rect x="357.1" y="226.6" class="st9" width="5.3" height="10.4"/>
	<rect x="362.9" y="233.5" class="st10" width="5.3" height="3.5"/>
	<rect x="380.6" y="233.5" class="st9" width="5.3" height="3.5"/>
	<g>
		<rect x="386.5" y="226.6" class="st10" width="5.3" height="3.5"/>
		<rect x="386.5" y="230" class="st9" width="5.3" height="3.5"/>
		<rect x="386.5" y="233.5" class="st12" width="5.3" height="3.5"/>
	</g>
	<rect x="392.4" y="233.5" class="st9" width="5.3" height="3.5"/>
	<g>
		<rect x="404.1" y="226.6" class="st11" width="5.3" height="3.5"/>
		<rect x="404.1" y="230" class="st9" width="5.3" height="3.5"/>
		<rect x="404.1" y="233.5" class="st12" width="5.3" height="3.5"/>
	</g>
	<g>
		<rect x="410" y="223.1" class="st10" width="5.3" height="3.5"/>
		<rect x="410" y="226.6" class="st9" width="5.3" height="10.4"/>
	</g>
	<g>
		<rect x="415.9" y="216.1" class="st10" width="5.3" height="7"/>
		<rect x="415.9" y="223.1" class="st9" width="5.3" height="13.9"/>
	</g>
	<rect x="421.8" y="223.1" class="st9" width="5.3" height="13.9"/>
	<g>
		<rect x="427.7" y="226.6" class="st10" width="5.3" height="3.5"/>
		<rect x="427.7" y="230" class="st9" width="5.3" height="7"/>
	</g>
	<g>
		<rect x="433.6" y="209.2" class="st11" width="5.3" height="3.5"/>
		<rect x="433.6" y="212.6" class="st10" width="5.3" height="3.5"/>
		<rect x="433.6" y="216.1" class="st9" width="5.3" height="10.4"/>
		<rect x="433.6" y="226.6" class="st12" width="5.3" height="10.4"/>
	</g>
	<g>
		<rect x="445.3" y="223.1" class="st10" width="5.3" height="7"/>
		<rect x="445.3" y="230" class="st9" width="5.3" height="7"/>
	</g>
	<g>
		<rect x="457.1" y="226.6" class="st14" width="5.3" height="3.5"/>
		<rect x="457.1" y="230" class="st9" width="5.3" height="7"/>
	</g>
	<rect x="345.6" y="182.2" class="st2" width="122.3" height="57.4"/>
	<rect x="345.6" y="165.4" class="st2" width="122.3" height="16.8"/>
	<text transform="matrix(1 0 0 1 389.9253 176.7202)" class="st5 st15">Chinese</text>
	<rect x="345.6" y="165.4" class="st2" width="122.3" height="16.8"/>
	<rect x="345.6" y="165.4" class="st2" width="122.3" height="16.8"/>
	<rect x="345.6" y="165.4" class="st2" width="122.3" height="16.8"/>
	<g>
		<text transform="matrix(1 0 0 1 485.1027 408.9102)" class="st5 st15">1970</text>
		<text transform="matrix(1 0 0 1 514.5226 408.9102)" class="st5 st15">1980</text>
		<text transform="matrix(1 0 0 1 543.9426 408.9102)" class="st5 st15">1990</text>
		<text transform="matrix(1 0 0 1 573.3723 408.9102)" class="st5 st15">2000</text>
		<text transform="matrix(1 0 0 1 602.7922 408.9102)" class="st5 st15">2010</text>
	</g>
	<text transform="matrix(1 0 0 1 45.5 159.4399)" class="st5 st15">0</text>
	<text transform="matrix(1 0 0 1 45.5 142.04)" class="st5 st15">5</text>
	<text transform="matrix(1 0 0 1 40.6802 124.6401)" class="st5 st15">10</text>
	<text transform="matrix(1 0 0 1 40.6802 107.2402)" class="st5 st15">15</text>
	<text transform="matrix(1 0 0 1 45.5 239.1099)" class="st5 st15">0</text>
	<text transform="matrix(1 0 0 1 45.5 221.71)" class="st5 st15">5</text>
	<text transform="matrix(1 0 0 1 40.6802 204.3101)" class="st5 st15">10</text>
	<text transform="matrix(1 0 0 1 40.6802 186.9102)" class="st5 st15">15</text>
	<text transform="matrix(1 0 0 1 45.5 318.79)" class="st5 st15">0</text>
	<text transform="matrix(1 0 0 1 45.5 301.3896)" class="st5 st15">5</text>
	<text transform="matrix(1 0 0 1 40.6802 283.9902)" class="st5 st15">10</text>
	<text transform="matrix(1 0 0 1 40.6802 266.5898)" class="st5 st15">15</text>
	<text transform="matrix(1 0 0 1 45.5 398.46)" class="st5 st15">0</text>
	<text transform="matrix(1 0 0 1 45.5 381.0596)" class="st5 st15">5</text>
	<text transform="matrix(1 0 0 1 40.6802 363.6602)" class="st5 st15">10</text>
	<text transform="matrix(1 0 0 1 40.6802 346.2598)" class="st5 st15">15</text>
	<text transform="matrix(0 -1 1 0 20.7599 310.4902)" class="st3 st15">Number of respondents</text>
	<text transform="matrix(1 0 0 1 142.6152 445.43)" class="st3 st4">Number of Campaign Participation Activities</text>
	<rect x="98.9" y="455.3" class="st12" width="15.9" height="15.9"/>
	<rect x="226.6" y="455.3" class="st9" width="15.9" height="15.9"/>
	<rect x="285.8" y="455.3" class="st10" width="15.9" height="15.9"/>
	<rect x="344.9" y="455.3" class="st11" width="15.9" height="15.9"/>
	<rect x="404" y="455.3" class="st13" width="15.9" height="15.9"/>
	<rect x="463.2" y="455.3" class="st14" width="15.9" height="15.9"/>
	<rect x="522.3" y="455.3" class="st16" width="15.9" height="15.9"/>
	<text transform="matrix(1 0 0 1 122.3 459.5276)"><tspan x="0" y="0" class="st5 st17">Don’t know/</tspan><tspan x="0" y="12" class="st5 st17">Not applicable</tspan></text>
	<text transform="matrix(1 0 0 1 246.3241 465.5278)" class="st5 st17">1</text>
	<text transform="matrix(1 0 0 1 305.4666 465.5275)" class="st5 st17">2</text>
	<text transform="matrix(1 0 0 1 364.6089 465.5278)" class="st5 st17">3</text>
	<text transform="matrix(1 0 0 1 423.7507 465.5277)" class="st5 st17">4</text>
	<text transform="matrix(1 0 0 1 482.8935 465.5278)" class="st5 st17">5</text>
	<text transform="matrix(1 0 0 1 542.0352 465.5276)" class="st5 st17">6</text>
	<text transform="matrix(1 0 0 1 9.3335 496.8151)" class="st18 st5 st15">Source: American National Election Survey, Time Series Cumulative</text>
</g>
</svg>
